PathFileType	4	(X/Y/Z)	Walk7.trc
DataRate	CameraRate	NumFrames	NumMarkers	Units	OrigDataRate	OrigDataStartFrame	OrigNumFrames
200.000000	200.000000	8	61	mm	200.000000	732	852
Frame#	Times		LowerBodyModelVer		LFHD		RFHD		RACR1		RUA1		RCAR		LElbow		RFA1		RASI		LACR1		LLFC		RWRU		LUA1		LTH3		LTB1		LMT1		RTH2		LMT5		LTB3		LTB4		LToe		LTB2		LTH2		LTH4		CLAV		RLFC		STRN		LLMAL		RBHD		LTH1		RTH3		LFA1		RBack		C7		LWRU		LPSI		RMT5		RMT1		LBHD		LCAR		RTH4		RCAL		RTH1		RTB2		RToe		RLMAL		LASI		RPSI		SACR		RTB3		LWRR		RTB1		RTB4		RMMAL		LMMAL		RElbowM		RElbow		T10		RWRR		LCAL		LElbowM
			X1	Y1	Z1	X2	Y2	Z2	X3	Y3	Z3	X4	Y4	Z4	X5	Y5	Z5	X6	Y6	Z6	X7	Y7	Z7	X8	Y8	Z8	X9	Y9	Z9	X10	Y10	Z10	X11	Y11	Z11	X12	Y12	Z12	X13	Y13	Z13	X14	Y14	Z14	X15	Y15	Z15	X16	Y16	Z16	X17	Y17	Z17	X18	Y18	Z18	X19	Y19	Z19	X20	Y20	Z20	X21	Y21	Z21	X22	Y22	Z22	X23	Y23	Z23	X24	Y24	Z24	X25	Y25	Z25	X26	Y26	Z26	X27	Y27	Z27	X28	Y28	Z28	X29	Y29	Z29	X30	Y30	Z30	X31	Y31	Z31	X32	Y32	Z32	X33	Y33	Z33	X34	Y34	Z34	X35	Y35	Z35	X36	Y36	Z36	X37	Y37	Z37	X38	Y38	Z38	X39	Y39	Z39	X40	Y40	Z40	X41	Y41	Z41	X42	Y42	Z42	X43	Y43	Z43	X44	Y44	Z44	X45	Y45	Z45	X46	Y46	Z46	X47	Y47	Z47	X48	Y48	Z48	X49	Y49	Z49	X50	Y50	Z50	X51	Y51	Z51	X52	Y52	Z52	X53	Y53	Z53	X54	Y54	Z54	X55	Y55	Z55	X56	Y56	Z56	X57	Y57	Z57	X58	Y58	Z58	X59	Y59	Z59	X60	Y60	Z60	X61	Y61	Z61

732	3.66	9	2014	4	522.71	1562.8	6.6271	527.58	1557.4	104.36	397.53	1361.9	222.12	377.34	1217.4	312	461.98	778.38	374.77	265.78	1093.9	-253.19	423.04	934.91	361.31	452.29	946	200.5	377.38	1367	-135.18	454.07	499.49	-170.76	419.66	829.43	393.06	340.9	1227	-217.43	457.98	571.49	-181.88	527.49	352.1	-87.609	638.71	73.138	-109.5	394.78	621.16	194.87	607.86	55.044	-187.98	531.43	182.49	-105.4	525.53	267.43	-97.197	673.18	85.688	-119.69	510.89	274.17	-156.9	484.39	673.31	-191.78	430.03	651.69	-206.57	455.96	1331.6	40.997	307.15	453.49	181.42	514.92	1211.4	38.61	491.03	80.921	-163.41	358.33	1570.2	121.46	405.73	730.88	-228.86	321.76	545.68	195.93	300.03	968.63	-298.53	250.81	1307.5	159.2	302.3	1414	64.943	256.14	858.86	-332.89	204.97	987.9	-66.566	328.3	27.478	170.16	339.95	33.76	77.535	369	1564.3	-14.025	287.25	808.05	-342.81	337.39	630.14	212.5	151.15	29.837	117.71	367.8	707.06	231.67	293.99	263.67	162.72	386.76	31.074	87.328	208.87	67.648	160.05	468.67	955.08	-132.93	198.42	984.27	66.808	201.69	986.08	0.12094	278.14	174.91	103.86	315.45	846.43	-288.03	336.58	336.05	96.799	301.16	256.66	101	226.07	72.273	73.585	515.48	87.107	-82.251	299.85	1035.7	276.91	345.96	1054.6	354.88	231.44	1088.7	26.759	451.71	832.38	325.61	453.86	28.243	-113.25	269.14	1050.1	-153.59
733	3.665	9	2014	4	527.64	1562	5.7261	532.43	1556.5	103.46	402.34	1361.6	221.24	382.62	1217.2	311.19	467.46	778.47	374.57	269.23	1093.2	-253.41	428.26	934.92	361.01	456.36	945.55	200.39	381.64	1366.3	-136.07	457.73	498.33	-170.04	425.03	829.46	392.84	344.7	1226.3	-218.16	460.53	569.77	-181.82	534.2	352.83	-85.833	652.95	76.119	-108.26	398.16	620.55	194.77	623.06	57.135	-186.99	542.84	183.28	-104.68	534.69	268.09	-96.03	687.14	89.503	-118.01	520.71	274.77	-155.89	487.51	671.44	-191.94	432.98	650.1	-206.55	460.62	1331	40.219	310.02	453.11	181.25	519.63	1210.9	38.416	505.41	80.816	-163.43	363.19	1569.6	120.45	409.07	729.41	-228.83	324.93	545.28	195.67	302.67	967.74	-298.82	255.61	1307.1	158.54	306.97	1413.4	64.107	257.98	858.19	-332.91	209.76	987.17	-67.434	328.32	27.448	170.21	339.95	33.808	77.598	373.93	1563.7	-15.022	288.7	807.14	-342.91	341.08	629.58	212.33	151.16	30.142	117.72	371.37	706.52	231.42	295.43	263.39	162.76	386.79	31.058	87.398	209.05	67.818	160.08	473.36	954.36	-132.99	202.96	983.65	65.917	206.36	985.41	-0.75876	279.04	174.69	103.97	317.43	845.46	-288.3	338.77	335.37	96.838	302.65	256.26	101	226.25	72.414	73.63	528.87	87.521	-82.12	304.82	1035.5	276.71	351.06	1054.6	354.55	236.04	1088	26.142	457.06	832.43	325.34	468.94	27.161	-113.58	272.98	1049.5	-153.76
734	3.67	9	2014	4	532.56	1561.2	4.7851	537.26	1555.7	102.53	407.11	1361.3	220.33	387.86	1216.9	310.33	472.89	778.53	374.3	272.7	1092.4	-253.65	433.45	934.92	360.66	460.47	945.07	200.22	385.88	1365.5	-137	461.54	497.18	-169.36	430.37	829.48	392.57	348.5	1225.5	-218.91	463.03	567.98	-181.88	540.83	353.52	-84.08	666.53	78.998	-106.95	401.59	619.94	194.65	637.57	59.218	-185.93	553.85	184.11	-103.89	543.61	268.76	-94.833	700.45	93.138	-116.28	530.29	275.4	-154.83	490.63	669.5	-192.11	435.92	648.47	-206.62	465.26	1330.3	39.409	312.93	452.72	181.07	524.36	1210.4	38.24	519.21	80.885	-163.32	368.03	1569	119.4	412.45	727.91	-228.83	328.16	544.88	195.4	305.35	966.81	-299.13	260.38	1306.6	157.82	311.62	1412.8	63.225	259.88	857.47	-332.94	214.59	986.42	-68.346	328.33	27.418	170.27	339.95	33.86	77.662	378.85	1563.2	-16.068	290.22	806.2	-343.02	344.81	629	212.14	151.17	30.473	117.74	374.98	705.97	231.17	296.89	263.12	162.8	386.82	31.043	87.467	209.22	68.004	160.12	478.12	953.6	-133.11	207.54	983.01	64.988	211.07	984.72	-1.6788	279.95	174.48	104.1	319.47	844.45	-288.59	340.99	334.67	96.873	304.16	255.85	101.01	226.44	72.571	73.675	541.72	88.043	-81.859	309.74	1035.3	276.48	356.15	1054.5	354.18	240.66	1087.4	25.485	462.35	832.46	325.03	483.39	26.316	-113.77	276.84	1048.8	-153.95
735	3.675	9	2014	4	537.46	1560.4	3.804	542.07	1554.9	101.55	411.85	1361	219.38	393.05	1216.7	309.42	478.26	778.57	373.97	276.2	1091.6	-253.92	438.62	934.91	360.26	464.63	944.58	200	390.13	1364.6	-137.96	465.55	496.03	-168.72	435.68	829.49	392.24	352.29	1224.7	-219.69	465.55	566.13	-182.04	547.38	354.15	-82.36	679.42	81.719	-105.58	405.07	619.32	194.52	651.36	61.234	-184.77	564.42	184.94	-103.02	552.28	269.4	-93.609	713.11	96.532	-114.49	539.61	276.04	-153.73	493.76	667.52	-192.3	438.89	646.81	-206.77	469.91	1329.7	38.564	315.87	452.33	180.87	529.11	1209.8	38.068	532.36	81.08	-163.08	372.85	1568.3	118.3	415.86	726.39	-228.86	331.44	544.48	195.11	308.08	965.85	-299.44	265.14	1306	157.03	316.25	1412.2	62.298	261.86	856.71	-332.98	219.46	985.65	-69.296	328.35	27.389	170.32	339.94	33.914	77.724	383.75	1562.6	-17.163	291.83	805.24	-343.14	348.56	628.41	211.93	151.19	30.83	117.76	378.66	705.42	230.9	298.37	262.85	162.83	386.85	31.029	87.533	209.4	68.21	160.15	482.93	952.79	-133.3	212.13	982.36	64.024	215.8	984	-2.6359	280.87	174.26	104.24	321.57	843.41	-288.87	343.23	333.95	96.904	305.68	255.44	101.01	226.62	72.745	73.719	553.99	88.632	-81.458	314.64	1035.1	276.22	361.23	1054.5	353.77	245.31	1086.7	24.79	467.59	832.47	324.66	497.15	25.67	-113.8	280.72	1048.1	-154.17
736	3.68	9	2014	4	542.35	1559.6	2.7828	546.86	1554	100.54	416.57	1360.7	218.39	398.19	1216.5	308.47	483.58	778.58	373.56	279.72	1090.8	-254.21	443.76	934.88	359.81	468.83	944.08	199.73	394.38	1363.8	-138.95	469.81	494.92	-168.12	440.94	829.49	391.87	356.09	1223.9	-220.5	468.12	564.26	-182.3	553.85	354.7	-80.688	691.59	84.231	-104.12	408.61	618.69	194.36	664.39	63.127	-183.5	574.54	185.74	-102.08	560.69	270	-92.361	725.07	99.63	-112.62	548.65	276.64	-152.59	496.94	665.53	-192.51	441.91	645.13	-207.01	474.54	1329.1	37.682	318.86	451.93	180.66	533.85	1209.3	37.887	544.84	81.353	-162.7	377.65	1567.7	117.15	419.31	724.86	-228.94	334.78	544.07	194.82	310.85	964.85	-299.76	269.87	1305.4	156.18	320.86	1411.5	61.324	263.9	855.91	-333.02	224.35	984.85	-70.282	328.36	27.361	170.37	339.94	33.971	77.786	388.65	1561.9	-18.306	293.51	804.24	-343.27	352.34	627.82	211.68	151.22	31.216	117.8	382.39	704.86	230.63	299.86	262.59	162.86	386.87	31.016	87.596	209.58	68.436	160.18	487.8	951.95	-133.55	216.76	981.7	63.029	220.55	983.27	-3.6266	281.79	174.05	104.38	323.74	842.34	-289.17	345.5	333.23	96.93	307.21	255.01	101.02	226.82	72.936	73.763	565.63	89.246	-80.909	319.5	1034.9	275.92	366.3	1054.4	353.33	249.97	1085.9	24.058	472.78	832.45	324.24	510.18	25.181	-113.68	284.61	1047.4	-154.4
737	3.685	9	2014	4	547.23	1558.7	1.7217	551.62	1553.1	99.488	421.25	1360.3	217.36	403.27	1216.2	307.48	488.84	778.56	373.09	283.28	1089.9	-254.53	448.86	934.84	359.3	473.07	943.56	199.39	398.63	1362.9	-139.98	474.36	493.85	-167.56	446.17	829.46	391.44	359.89	1223	-221.33	470.81	562.4	-182.64	560.25	355.16	-79.075	703.01	86.484	-102.56	412.22	618.04	194.19	676.64	64.84	-182.11	584.18	186.47	-101.05	568.82	270.53	-91.093	736.33	102.38	-110.67	557.4	277.18	-151.42	500.18	663.57	-192.73	445.01	643.45	-207.32	479.18	1328.4	36.758	321.88	451.54	180.43	538.61	1208.7	37.684	556.61	81.656	-162.16	382.42	1567	115.94	422.81	723.32	-229.07	338.17	543.66	194.51	313.67	963.81	-300.09	274.58	1304.8	155.28	325.46	1410.8	60.303	266.01	855.07	-333.07	229.26	984.03	-71.299	328.36	27.335	170.41	339.94	34.03	77.845	393.52	1561.3	-19.496	295.28	803.22	-343.41	356.15	627.21	211.39	151.25	31.633	117.84	386.2	704.3	230.33	301.37	262.33	162.89	386.89	31.004	87.657	209.76	68.685	160.21	492.73	951.08	-133.86	221.4	981.02	62.005	225.33	982.53	-4.6473	282.73	173.84	104.54	325.98	841.23	-289.47	347.79	332.5	96.951	308.76	254.59	101.04	227.02	73.144	73.805	576.61	89.843	-80.208	324.32	1034.7	275.58	371.34	1054.3	352.85	254.66	1085.1	23.292	477.9	832.42	323.77	522.42	24.809	-113.39	288.53	1046.6	-154.66
738	3.69	9	2014	4	552.08	1557.8	0.62065	556.36	1552.2	98.397	425.9	1360	216.29	408.31	1215.9	306.45	494.04	778.51	372.57	286.86	1089	-254.88	453.94	934.77	358.74	477.37	943.04	199	402.89	1361.9	-141.05	479.22	492.84	-167.04	451.36	829.43	390.96	363.69	1222.1	-222.19	473.68	560.57	-183.02	566.59	355.51	-77.537	713.66	88.432	-100.89	415.88	617.38	193.98	688.1	66.324	-180.59	593.33	187.1	-99.949	576.66	270.97	-89.813	746.86	104.73	-108.61	565.84	277.63	-150.22	503.53	661.68	-192.95	448.24	641.8	-207.69	483.8	1327.8	35.79	324.93	451.15	180.19	543.36	1208.2	37.444	567.65	81.943	-161.48	387.17	1566.3	114.69	426.38	721.78	-229.26	341.62	543.24	194.19	316.55	962.73	-300.44	279.27	1304.2	154.31	330.05	1410	59.233	268.19	854.18	-333.12	234.21	983.19	-72.344	328.36	27.31	170.45	339.94	34.091	77.903	398.39	1560.7	-20.734	297.14	802.16	-343.56	359.98	626.6	211.06	151.29	32.082	117.88	390.08	703.73	230.02	302.89	262.07	162.91	386.91	30.994	87.714	209.94	68.958	160.24	497.73	950.18	-134.25	226.06	980.34	60.955	230.13	981.77	-5.6945	283.68	173.64	104.71	328.28	840.08	-289.77	350.1	331.76	96.966	310.32	254.15	101.06	227.22	73.372	73.845	586.9	90.38	-79.354	329.12	1034.5	275.2	376.37	1054.2	352.33	259.37	1084.3	22.495	482.97	832.35	323.25	533.84	24.517	-112.95	292.47	1045.8	-154.95
739	3.695	9	2014	4	556.92	1557	-0.51997	561.08	1551.3	97.268	430.53	1359.6	215.18	413.28	1215.6	305.4	499.18	778.44	371.98	290.48	1088	-255.25	458.98	934.68	358.12	481.73	942.52	198.54	407.16	1361	-142.15	484.42	491.91	-166.56	456.51	829.37	390.44	367.51	1221.1	-223.07	476.8	558.83	-183.43	572.87	355.74	-76.083	723.54	90.036	-99.102	419.61	616.71	193.74	698.76	67.532	-178.93	601.98	187.6	-98.765	584.22	271.28	-88.525	756.66	106.65	-106.44	573.96	277.94	-149.01	507	659.89	-193.17	451.63	640.19	-208.12	488.42	1327.1	34.776	328.02	450.75	179.93	548.11	1207.6	37.158	577.94	82.17	-160.65	391.9	1565.6	113.4	430.03	720.25	-229.5	345.12	542.82	193.86	319.47	961.6	-300.81	283.94	1303.5	153.28	334.62	1409.3	58.113	270.45	853.24	-333.19	239.17	982.34	-73.412	328.37	27.287	170.48	339.94	34.153	77.959	403.23	1560	-22.018	299.08	801.06	-343.72	363.84	625.99	210.69	151.34	32.568	117.93	394.04	703.15	229.68	304.43	261.81	162.93	386.92	30.985	87.77	210.13	69.257	160.28	502.77	949.27	-134.69	230.75	979.64	59.882	234.96	980.99	-6.765	284.64	173.43	104.89	330.65	838.89	-290.08	352.43	331.02	96.977	311.9	253.72	101.11	227.43	73.62	73.883	596.5	90.819	-78.349	333.88	1034.3	274.79	381.38	1054.1	351.77	264.1	1083.4	21.668	487.97	832.26	322.68	544.41	24.272	-112.35	296.44	1044.9	-155.27
